# xmcd CD database file
#
# Track frame offsets:
#	150
#	15037
#	38963
#	61785
#	78885
#	103595
#	128495
#	160671
#	184296
#	203412
#	223197
#	238649
#
# Disc length: 3458 seconds
#
# Revision: 0
# Processed by: cddbd v1.5.2PL0 Copyright (c) Steve Scherf et al.
# Submitted via: CDex 1.79
#
DISCID=8b0d800c
DTITLE=Various Performers - Venus Jazz Bossa Cafe ~ Relaxin' Jazzy Bossa Feeling [CD1]
DYEAR=2012
DGENRE=Jazz
TTITLE0=Say It Isn't So - Nicki Parrott
TTITLE1=Aqua De Beber - Adela Dalt
TTITLE2=Blue Bossa - Dan Nimmer Trio
TTITLE3=Night And Day - Nicole Henry
TTITLE4=Desafinado - Laura Ann
TTITLE5=The Shadow Of Your Smile - George Garzone
TTITLE6=Moon And Sand - Bob Kindred Quartet
TTITLE7=Vivo Sonhando - Joe Beck
TTITLE8=Tereza My Love - Joel Frahm Quarter
TTITLE9=So Many Stars - Tessa Souter
TTITLE10=These Foolish Things - Maucha Adnet
TTITLE11=Fights Never More - Eddie Higgins Trio
EXTD=YEAR: 2012
EXTT0=
EXTT1=
EXTT2=
EXTT3=
EXTT4=
EXTT5=
EXTT6=
EXTT7=
EXTT8=
EXTT9=
EXTT10=
EXTT11=
PLAYORDER=
